<svg class="main-svg" xmlns="http://www.w3.org/2000/svg" xmlns:xlink="http://www.w3.org/1999/xlink" width="1000" height="800" style="" viewBox="0 0 1000 800"><rect x="0" y="0" width="1000" height="800" style="fill: rgb(255, 255, 255); fill-opacity: 1;"/><defs id="defs-3cef0e"><g class="clips"><clipPath id="clip3cef0exyplot" class="plotclip"><rect width="690" height="660"/></clipPath><clipPath class="axesclip" id="clip3cef0ex"><rect x="80" y="0" width="690" height="800"/></clipPath><clipPath class="axesclip" id="clip3cef0ey"><rect x="0" y="60" width="1000" height="660"/></clipPath><clipPath class="axesclip" id="clip3cef0exy"><rect x="80" y="60" width="690" height="660"/></clipPath></g><g class="gradients"><linearGradient x1="0" x2="0" y1="1" y2="0" id="g3cef0e-cbcoloraxis"><stop offset="0%" stop-color="rgb(171, 228, 255)" stop-opacity="1"/><stop offset="100%" stop-color="rgb(241, 172, 139)" stop-opacity="1"/></linearGradient></g><g class="patterns"/></defs><g class="bglayer"><rect class="bg" x="80" y="60" width="690" height="660" style="fill: rgb(229, 236, 246); fill-opacity: 1; stroke-width: 0;"/></g><g class="layer-below"><g class="imagelayer"/><g class="shapelayer"/></g><g class="cartesianlayer"><g class="subplot xy"><g class="layer-subplot"><g class="shapelayer"/><g class="imagelayer"/></g><g class="minor-gridlayer"><g class="x"/><g class="y"/></g><g class="gridlayer"><g class="x"><path class="xgrid crisp" transform="translate(125.7,0)" d="M0,60v660" style="stroke: rgb(255, 255, 255); stroke-opacity: 1; stroke-width: 1px;"/><path class="xgrid crisp" transform="translate(224.83,0)" d="M0,60v660" style="stroke: rgb(255, 255, 255); stroke-opacity: 1; stroke-width: 1px;"/><path class="xgrid crisp" transform="translate(323.96000000000004,0)" d="M0,60v660" style="stroke: rgb(255, 255, 255); stroke-opacity: 1; stroke-width: 1px;"/><path class="xgrid crisp" transform="translate(423.09,0)" d="M0,60v660" style="stroke: rgb(255, 255, 255); stroke-opacity: 1; stroke-width: 1px;"/><path class="xgrid crisp" transform="translate(621.36,0)" d="M0,60v660" style="stroke: rgb(255, 255, 255); stroke-opacity: 1; stroke-width: 1px;"/><path class="xgrid crisp" transform="translate(720.49,0)" d="M0,60v660" style="stroke: rgb(255, 255, 255); stroke-opacity: 1; stroke-width: 1px;"/></g><g class="y"><path class="ygrid crisp" transform="translate(0,649.21)" d="M80,0h690" style="stroke: rgb(255, 255, 255); stroke-opacity: 1; stroke-width: 1px;"/><path class="ygrid crisp" transform="translate(0,547.11)" d="M80,0h690" style="stroke: rgb(255, 255, 255); stroke-opacity: 1; stroke-width: 1px;"/><path class="ygrid crisp" transform="translate(0,342.92)" d="M80,0h690" style="stroke: rgb(255, 255, 255); stroke-opacity: 1; stroke-width: 1px;"/><path class="ygrid crisp" transform="translate(0,240.83)" d="M80,0h690" style="stroke: rgb(255, 255, 255); stroke-opacity: 1; stroke-width: 1px;"/><path class="ygrid crisp" transform="translate(0,138.73000000000002)" d="M80,0h690" style="stroke: rgb(255, 255, 255); stroke-opacity: 1; stroke-width: 1px;"/></g></g><g class="zerolinelayer"><path class="xzl zl crisp" transform="translate(522.23,0)" d="M0,60v660" style="stroke: rgb(255, 255, 255); stroke-opacity: 1; stroke-width: 2px;"/><path class="yzl zl crisp" transform="translate(0,445.02)" d="M80,0h690" style="stroke: rgb(255, 255, 255); stroke-opacity: 1; stroke-width: 2px;"/></g><path class="xlines-below"/><path class="ylines-below"/><g class="overlines-below"/><g class="xaxislayer-below"/><g class="yaxislayer-below"/><g class="overaxes-below"/><g class="plot" transform="translate(80,60)" clip-path="url(#clip3cef0exyplot)"><g class="scatterlayer mlayer"><g class="trace scatter traceec76a8" style="stroke-miterlimit: 2; opacity: 1;"><g class="fills"/><g class="errorbars"/><g class="lines"/><g class="points"><path class="point" transform="translate(530.12,129.06)" d="M8.5,0A8.5,8.5 0 1,1 0,-8.5A8.5,8.5 0 0,1 8.5,0Z" style="opacity: 1; stroke-width: 2px; fill: rgb(238, 175, 145); fill-opacity: 1; stroke: rgb(0, 0, 0); stroke-opacity: 1;"/><path class="point" transform="translate(368.79,190.14)" d="M8.5,0A8.5,8.5 0 1,1 0,-8.5A8.5,8.5 0 0,1 8.5,0Z" style="opacity: 1; stroke-width: 2px; fill: rgb(238, 175, 145); fill-opacity: 1; stroke: rgb(0, 0, 0); stroke-opacity: 1;"/><path class="point" transform="translate(398.18,336.22)" d="M8.5,0A8.5,8.5 0 1,1 0,-8.5A8.5,8.5 0 0,1 8.5,0Z" style="opacity: 1; stroke-width: 2px; fill: rgb(238, 175, 145); fill-opacity: 1; stroke: rgb(0, 0, 0); stroke-opacity: 1;"/><path class="point" transform="translate(434.77,243.42)" d="M8.5,0A8.5,8.5 0 1,1 0,-8.5A8.5,8.5 0 0,1 8.5,0Z" style="opacity: 1; stroke-width: 2px; fill: rgb(238, 175, 145); fill-opacity: 1; stroke: rgb(0, 0, 0); stroke-opacity: 1;"/><path class="point" transform="translate(623.81,167.72)" d="M8.5,0A8.5,8.5 0 1,1 0,-8.5A8.5,8.5 0 0,1 8.5,0Z" style="opacity: 1; stroke-width: 2px; fill: rgb(238, 175, 145); fill-opacity: 1; stroke: rgb(0, 0, 0); stroke-opacity: 1;"/><path class="point" transform="translate(579.46,151.6)" d="M8.5,0A8.5,8.5 0 1,1 0,-8.5A8.5,8.5 0 0,1 8.5,0Z" style="opacity: 1; stroke-width: 2px; fill: rgb(236, 176, 148); fill-opacity: 1; stroke: rgb(0, 0, 0); stroke-opacity: 1;"/><path class="point" transform="translate(630.77,187.88)" d="M8.5,0A8.5,8.5 0 1,1 0,-8.5A8.5,8.5 0 0,1 8.5,0Z" style="opacity: 1; stroke-width: 2px; fill: rgb(236, 176, 148); fill-opacity: 1; stroke: rgb(0, 0, 0); stroke-opacity: 1;"/><path class="point" transform="translate(644.88,149.56)" d="M8.5,0A8.5,8.5 0 1,1 0,-8.5A8.5,8.5 0 0,1 8.5,0Z" style="opacity: 1; stroke-width: 2px; fill: rgb(236, 176, 148); fill-opacity: 1; stroke: rgb(0, 0, 0); stroke-opacity: 1;"/><path class="point" transform="translate(220.66,473.28)" d="M8.5,0A8.5,8.5 0 1,1 0,-8.5A8.5,8.5 0 0,1 8.5,0Z" style="opacity: 1; stroke-width: 2px; fill: rgb(225, 185, 166); fill-opacity: 1; stroke: rgb(0, 0, 0); stroke-opacity: 1;"/><path class="point" transform="translate(571.44,234.16)" d="M8.5,0A8.5,8.5 0 1,1 0,-8.5A8.5,8.5 0 0,1 8.5,0Z" style="opacity: 1; stroke-width: 2px; fill: rgb(225, 185, 166); fill-opacity: 1; stroke: rgb(0, 0, 0); stroke-opacity: 1;"/><path class="point" transform="translate(462.78,268.35)" d="M8.5,0A8.5,8.5 0 1,1 0,-8.5A8.5,8.5 0 0,1 8.5,0Z" style="opacity: 1; stroke-width: 2px; fill: rgb(225, 185, 166); fill-opacity: 1; stroke: rgb(0, 0, 0); stroke-opacity: 1;"/><path class="point" transform="translate(466.13,332.01)" d="M8.5,0A8.5,8.5 0 1,1 0,-8.5A8.5,8.5 0 0,1 8.5,0Z" style="opacity: 1; stroke-width: 2px; fill: rgb(228, 183, 161); fill-opacity: 1; stroke: rgb(0, 0, 0); stroke-opacity: 1;"/><path class="point" transform="translate(571.57,233.91)" d="M8.5,0A8.5,8.5 0 1,1 0,-8.5A8.5,8.5 0 0,1 8.5,0Z" style="opacity: 1; stroke-width: 2px; fill: rgb(228, 183, 161); fill-opacity: 1; stroke: rgb(0, 0, 0); stroke-opacity: 1;"/><path class="point" transform="translate(459.27,381.94)" d="M8.5,0A8.5,8.5 0 1,1 0,-8.5A8.5,8.5 0 0,1 8.5,0Z" style="opacity: 1; stroke-width: 2px; fill: rgb(228, 183, 161); fill-opacity: 1; stroke: rgb(0, 0, 0); stroke-opacity: 1;"/><path class="point" transform="translate(339.51,536.45)" d="M8.5,0A8.5,8.5 0 1,1 0,-8.5A8.5,8.5 0 0,1 8.5,0Z" style="opacity: 1; stroke-width: 2px; fill: rgb(211, 196, 189); fill-opacity: 1; stroke: rgb(0, 0, 0); stroke-opacity: 1;"/><path class="point" transform="translate(178.04,452.89)" d="M8.5,0A8.5,8.5 0 1,1 0,-8.5A8.5,8.5 0 0,1 8.5,0Z" style="opacity: 1; stroke-width: 2px; fill: rgb(211, 196, 189); fill-opacity: 1; stroke: rgb(0, 0, 0); stroke-opacity: 1;"/><path class="point" transform="translate(363.21,500.16)" d="M8.5,0A8.5,8.5 0 1,1 0,-8.5A8.5,8.5 0 0,1 8.5,0Z" style="opacity: 1; stroke-width: 2px; fill: rgb(211, 196, 189); fill-opacity: 1; stroke: rgb(0, 0, 0); stroke-opacity: 1;"/><path class="point" transform="translate(317.46,424.16)" d="M8.5,0A8.5,8.5 0 1,1 0,-8.5A8.5,8.5 0 0,1 8.5,0Z" style="opacity: 1; stroke-width: 2px; fill: rgb(199, 206, 209); fill-opacity: 1; stroke: rgb(0, 0, 0); stroke-opacity: 1;"/><path class="point" transform="translate(136.99,404.12)" d="M8.5,0A8.5,8.5 0 1,1 0,-8.5A8.5,8.5 0 0,1 8.5,0Z" style="opacity: 1; stroke-width: 2px; fill: rgb(199, 206, 209); fill-opacity: 1; stroke: rgb(0, 0, 0); stroke-opacity: 1;"/><path class="point" transform="translate(299.61,386.46)" d="M8.5,0A8.5,8.5 0 1,1 0,-8.5A8.5,8.5 0 0,1 8.5,0Z" style="opacity: 1; stroke-width: 2px; fill: rgb(199, 206, 209); fill-opacity: 1; stroke: rgb(0, 0, 0); stroke-opacity: 1;"/><path class="point" transform="translate(164.15,365.4)" d="M8.5,0A8.5,8.5 0 1,1 0,-8.5A8.5,8.5 0 0,1 8.5,0Z" style="opacity: 1; stroke-width: 2px; fill: rgb(199, 206, 209); fill-opacity: 1; stroke: rgb(0, 0, 0); stroke-opacity: 1;"/><path class="point" transform="translate(178.13,392.43)" d="M8.5,0A8.5,8.5 0 1,1 0,-8.5A8.5,8.5 0 0,1 8.5,0Z" style="opacity: 1; stroke-width: 2px; fill: rgb(199, 206, 209); fill-opacity: 1; stroke: rgb(0, 0, 0); stroke-opacity: 1;"/><path class="point" transform="translate(286.65,616.38)" d="M8.5,0A8.5,8.5 0 1,1 0,-8.5A8.5,8.5 0 0,1 8.5,0Z" style="opacity: 1; stroke-width: 2px; fill: rgb(171, 228, 255); fill-opacity: 1; stroke: rgb(0, 0, 0); stroke-opacity: 1;"/><path class="point" transform="translate(322.18,528.5)" d="M8.5,0A8.5,8.5 0 1,1 0,-8.5A8.5,8.5 0 0,1 8.5,0Z" style="opacity: 1; stroke-width: 2px; fill: rgb(171, 228, 255); fill-opacity: 1; stroke: rgb(0, 0, 0); stroke-opacity: 1;"/><path class="point" transform="translate(327.23,532.51)" d="M8.5,0A8.5,8.5 0 1,1 0,-8.5A8.5,8.5 0 0,1 8.5,0Z" style="opacity: 1; stroke-width: 2px; fill: rgb(171, 228, 255); fill-opacity: 1; stroke: rgb(0, 0, 0); stroke-opacity: 1;"/><path class="point" transform="translate(561.5,293.25)" d="M8.5,0A8.5,8.5 0 1,1 0,-8.5A8.5,8.5 0 0,1 8.5,0Z" style="opacity: 1; stroke-width: 2px; fill: rgb(241, 172, 139); fill-opacity: 1; stroke: rgb(0, 0, 0); stroke-opacity: 1;"/><path class="point" transform="translate(622.9,235.24)" d="M8.5,0A8.5,8.5 0 1,1 0,-8.5A8.5,8.5 0 0,1 8.5,0Z" style="opacity: 1; stroke-width: 2px; fill: rgb(241, 172, 139); fill-opacity: 1; stroke: rgb(0, 0, 0); stroke-opacity: 1;"/><path class="point" transform="translate(616.95,269.46)" d="M8.5,0A8.5,8.5 0 1,1 0,-8.5A8.5,8.5 0 0,1 8.5,0Z" style="opacity: 1; stroke-width: 2px; fill: rgb(235, 177, 150); fill-opacity: 1; stroke: rgb(0, 0, 0); stroke-opacity: 1;"/><path class="point" transform="translate(571.77,233.52)" d="M8.5,0A8.5,8.5 0 1,1 0,-8.5A8.5,8.5 0 0,1 8.5,0Z" style="opacity: 1; stroke-width: 2px; fill: rgb(224, 186, 167); fill-opacity: 1; stroke: rgb(0, 0, 0); stroke-opacity: 1;"/><path class="point" transform="translate(592.61,100.34)" d="M8.5,0A8.5,8.5 0 1,1 0,-8.5A8.5,8.5 0 0,1 8.5,0Z" style="opacity: 1; stroke-width: 2px; fill: rgb(208, 198, 194); fill-opacity: 1; stroke: rgb(0, 0, 0); stroke-opacity: 1;"/><path class="point" transform="translate(589.35,101.85)" d="M8.5,0A8.5,8.5 0 1,1 0,-8.5A8.5,8.5 0 0,1 8.5,0Z" style="opacity: 1; stroke-width: 2px; fill: rgb(208, 198, 194); fill-opacity: 1; stroke: rgb(0, 0, 0); stroke-opacity: 1;"/><path class="point" transform="translate(336.97,371.35)" d="M8.5,0A8.5,8.5 0 1,1 0,-8.5A8.5,8.5 0 0,1 8.5,0Z" style="opacity: 1; stroke-width: 2px; fill: rgb(216, 192, 180); fill-opacity: 1; stroke: rgb(0, 0, 0); stroke-opacity: 1;"/><path class="point" transform="translate(418.79,336.63)" d="M8.5,0A8.5,8.5 0 1,1 0,-8.5A8.5,8.5 0 0,1 8.5,0Z" style="opacity: 1; stroke-width: 2px; fill: rgb(216, 192, 180); fill-opacity: 1; stroke: rgb(0, 0, 0); stroke-opacity: 1;"/><path class="point" transform="translate(373.49,465.62)" d="M8.5,0A8.5,8.5 0 1,1 0,-8.5A8.5,8.5 0 0,1 8.5,0Z" style="opacity: 1; stroke-width: 2px; fill: rgb(216, 192, 180); fill-opacity: 1; stroke: rgb(0, 0, 0); stroke-opacity: 1;"/><path class="point" transform="translate(360.27,207.3)" d="M8.5,0A8.5,8.5 0 1,1 0,-8.5A8.5,8.5 0 0,1 8.5,0Z" style="opacity: 1; stroke-width: 2px; fill: rgb(216, 192, 180); fill-opacity: 1; stroke: rgb(0, 0, 0); stroke-opacity: 1;"/><path class="point" transform="translate(522.97,311.7)" d="M8.5,0A8.5,8.5 0 1,1 0,-8.5A8.5,8.5 0 0,1 8.5,0Z" style="opacity: 1; stroke-width: 2px; fill: rgb(218, 190, 177); fill-opacity: 1; stroke: rgb(0, 0, 0); stroke-opacity: 1;"/><path class="point" transform="translate(376.86,347.12)" d="M8.5,0A8.5,8.5 0 1,1 0,-8.5A8.5,8.5 0 0,1 8.5,0Z" style="opacity: 1; stroke-width: 2px; fill: rgb(218, 190, 177); fill-opacity: 1; stroke: rgb(0, 0, 0); stroke-opacity: 1;"/><path class="point" transform="translate(439.61,213.36)" d="M8.5,0A8.5,8.5 0 1,1 0,-8.5A8.5,8.5 0 0,1 8.5,0Z" style="opacity: 1; stroke-width: 2px; fill: rgb(218, 190, 177); fill-opacity: 1; stroke: rgb(0, 0, 0); stroke-opacity: 1;"/><path class="point" transform="translate(345.03,348.84)" d="M8.5,0A8.5,8.5 0 1,1 0,-8.5A8.5,8.5 0 0,1 8.5,0Z" style="opacity: 1; stroke-width: 2px; fill: rgb(211, 196, 188); fill-opacity: 1; stroke: rgb(0, 0, 0); stroke-opacity: 1;"/><path class="point" transform="translate(190.66,200.93)" d="M8.5,0A8.5,8.5 0 1,1 0,-8.5A8.5,8.5 0 0,1 8.5,0Z" style="opacity: 1; stroke-width: 2px; fill: rgb(211, 196, 188); fill-opacity: 1; stroke: rgb(0, 0, 0); stroke-opacity: 1;"/><path class="point" transform="translate(288.59,392.22)" d="M8.5,0A8.5,8.5 0 1,1 0,-8.5A8.5,8.5 0 0,1 8.5,0Z" style="opacity: 1; stroke-width: 2px; fill: rgb(211, 196, 188); fill-opacity: 1; stroke: rgb(0, 0, 0); stroke-opacity: 1;"/><path class="point" transform="translate(160.7,287.45)" d="M8.5,0A8.5,8.5 0 1,1 0,-8.5A8.5,8.5 0 0,1 8.5,0Z" style="opacity: 1; stroke-width: 2px; fill: rgb(205, 201, 199); fill-opacity: 1; stroke: rgb(0, 0, 0); stroke-opacity: 1;"/><path class="point" transform="translate(324.34,302.66)" d="M8.5,0A8.5,8.5 0 1,1 0,-8.5A8.5,8.5 0 0,1 8.5,0Z" style="opacity: 1; stroke-width: 2px; fill: rgb(205, 201, 199); fill-opacity: 1; stroke: rgb(0, 0, 0); stroke-opacity: 1;"/><path class="point" transform="translate(82.25,190.09)" d="M8.5,0A8.5,8.5 0 1,1 0,-8.5A8.5,8.5 0 0,1 8.5,0Z" style="opacity: 1; stroke-width: 2px; fill: rgb(205, 201, 199); fill-opacity: 1; stroke: rgb(0, 0, 0); stroke-opacity: 1;"/><path class="point" transform="translate(131.32,226.24)" d="M8.5,0A8.5,8.5 0 1,1 0,-8.5A8.5,8.5 0 0,1 8.5,0Z" style="opacity: 1; stroke-width: 2px; fill: rgb(205, 201, 199); fill-opacity: 1; stroke: rgb(0, 0, 0); stroke-opacity: 1;"/><path class="point" transform="translate(384.09,431.26)" d="M8.5,0A8.5,8.5 0 1,1 0,-8.5A8.5,8.5 0 0,1 8.5,0Z" style="opacity: 1; stroke-width: 2px; fill: rgb(199, 205, 208); fill-opacity: 1; stroke: rgb(0, 0, 0); stroke-opacity: 1;"/><path class="point" transform="translate(48.02,132.77)" d="M8.5,0A8.5,8.5 0 1,1 0,-8.5A8.5,8.5 0 0,1 8.5,0Z" style="opacity: 1; stroke-width: 2px; fill: rgb(199, 205, 208); fill-opacity: 1; stroke: rgb(0, 0, 0); stroke-opacity: 1;"/><path class="point" transform="translate(510.76,420.94)" d="M8.5,0A8.5,8.5 0 1,1 0,-8.5A8.5,8.5 0 0,1 8.5,0Z" style="opacity: 1; stroke-width: 2px; fill: rgb(199, 205, 208); fill-opacity: 1; stroke: rgb(0, 0, 0); stroke-opacity: 1;"/><path class="point" transform="translate(45.13,216.44)" d="M8.5,0A8.5,8.5 0 1,1 0,-8.5A8.5,8.5 0 0,1 8.5,0Z" style="opacity: 1; stroke-width: 2px; fill: rgb(199, 205, 208); fill-opacity: 1; stroke: rgb(0, 0, 0); stroke-opacity: 1;"/><path class="point" transform="translate(138.06,43.63)" d="M8.5,0A8.5,8.5 0 1,1 0,-8.5A8.5,8.5 0 0,1 8.5,0Z" style="opacity: 1; stroke-width: 2px; fill: rgb(199, 205, 208); fill-opacity: 1; stroke: rgb(0, 0, 0); stroke-opacity: 1;"/></g><g class="text"/></g></g></g><g class="overplot"/><path class="xlines-above crisp" d="M0,0" style="fill: none;"/><path class="ylines-above crisp" d="M0,0" style="fill: none;"/><g class="overlines-above"/><g class="xaxislayer-above"><g class="xtick"><text text-anchor="middle" x="0" y="733" transform="translate(125.7,0)" style="font-family: 'Open Sans', verdana, arial, sans-serif; font-size: 12px; fill: rgb(42, 63, 95); fill-opacity: 1; white-space: pre; opacity: 1;">−4</text></g><g class="xtick"><text text-anchor="middle" x="0" y="733" style="font-family: 'Open Sans', verdana, arial, sans-serif; font-size: 12px; fill: rgb(42, 63, 95); fill-opacity: 1; white-space: pre; opacity: 1;" transform="translate(224.83,0)">−3</text></g><g class="xtick"><text text-anchor="middle" x="0" y="733" style="font-family: 'Open Sans', verdana, arial, sans-serif; font-size: 12px; fill: rgb(42, 63, 95); fill-opacity: 1; white-space: pre; opacity: 1;" transform="translate(323.96000000000004,0)">−2</text></g><g class="xtick"><text text-anchor="middle" x="0" y="733" style="font-family: 'Open Sans', verdana, arial, sans-serif; font-size: 12px; fill: rgb(42, 63, 95); fill-opacity: 1; white-space: pre; opacity: 1;" transform="translate(423.09,0)">−1</text></g><g class="xtick"><text text-anchor="middle" x="0" y="733" style="font-family: 'Open Sans', verdana, arial, sans-serif; font-size: 12px; fill: rgb(42, 63, 95); fill-opacity: 1; white-space: pre; opacity: 1;" transform="translate(522.23,0)">0</text></g><g class="xtick"><text text-anchor="middle" x="0" y="733" style="font-family: 'Open Sans', verdana, arial, sans-serif; font-size: 12px; fill: rgb(42, 63, 95); fill-opacity: 1; white-space: pre; opacity: 1;" transform="translate(621.36,0)">1</text></g><g class="xtick"><text text-anchor="middle" x="0" y="733" style="font-family: 'Open Sans', verdana, arial, sans-serif; font-size: 12px; fill: rgb(42, 63, 95); fill-opacity: 1; white-space: pre; opacity: 1;" transform="translate(720.49,0)">2</text></g></g><g class="yaxislayer-above"><g class="ytick"><text text-anchor="end" x="79" y="4.199999999999999" transform="translate(0,649.21)" style="font-family: 'Open Sans', verdana, arial, sans-serif; font-size: 12px; fill: rgb(42, 63, 95); fill-opacity: 1; white-space: pre; opacity: 1;">−2</text></g><g class="ytick"><text text-anchor="end" x="79" y="4.199999999999999" style="font-family: 'Open Sans', verdana, arial, sans-serif; font-size: 12px; fill: rgb(42, 63, 95); fill-opacity: 1; white-space: pre; opacity: 1;" transform="translate(0,547.11)">−1</text></g><g class="ytick"><text text-anchor="end" x="79" y="4.199999999999999" style="font-family: 'Open Sans', verdana, arial, sans-serif; font-size: 12px; fill: rgb(42, 63, 95); fill-opacity: 1; white-space: pre; opacity: 1;" transform="translate(0,445.02)">0</text></g><g class="ytick"><text text-anchor="end" x="79" y="4.199999999999999" style="font-family: 'Open Sans', verdana, arial, sans-serif; font-size: 12px; fill: rgb(42, 63, 95); fill-opacity: 1; white-space: pre; opacity: 1;" transform="translate(0,342.92)">1</text></g><g class="ytick"><text text-anchor="end" x="79" y="4.199999999999999" style="font-family: 'Open Sans', verdana, arial, sans-serif; font-size: 12px; fill: rgb(42, 63, 95); fill-opacity: 1; white-space: pre; opacity: 1;" transform="translate(0,240.83)">2</text></g><g class="ytick"><text text-anchor="end" x="79" y="4.199999999999999" style="font-family: 'Open Sans', verdana, arial, sans-serif; font-size: 12px; fill: rgb(42, 63, 95); fill-opacity: 1; white-space: pre; opacity: 1;" transform="translate(0,138.73000000000002)">3</text></g></g><g class="overaxes-above"/></g></g><g class="polarlayer"/><g class="smithlayer"/><g class="ternarylayer"/><g class="geolayer"/><g class="funnelarealayer"/><g class="pielayer"/><g class="iciclelayer"/><g class="treemaplayer"/><g class="sunburstlayer"/><g class="glimages"/><defs id="topdefs-3cef0e"><g class="clips"/></defs><g class="layer-above"><g class="imagelayer"/><g class="shapelayer"/></g><g class="infolayer"><g class="cbcoloraxis colorbar" transform="translate(80,60)"><rect class="cbbg" x="704" y="0" width="203.765625" height="660" style="fill: rgb(0, 0, 0); fill-opacity: 0; stroke: rgb(68, 68, 68); stroke-opacity: 1; stroke-width: 0;"/><g class="cbfills" transform="translate(0,32)"><rect class="cbfill gradient_filled" x="714" y="0" width="30" height="618" style="fill: url('#g3cef0e-cbcoloraxis');"/></g><g class="cblines" transform="translate(0,32)"/><g class="cbaxis crisp" transform="translate(0,-60)"><g class="ycbcoloraxistick"><text text-anchor="start" x="746.9" y="4.199999999999999" transform="translate(0,710)" style="font-family: 'Open Sans', verdana, arial, sans-serif; font-size: 12px; fill: rgb(0, 0, 0); fill-opacity: 1; white-space: pre; opacity: 1;">0.00</text></g><g class="ycbcoloraxistick"><text text-anchor="start" x="746.9" y="4.199999999999999" style="font-family: 'Open Sans', verdana, arial, sans-serif; font-size: 12px; fill: rgb(0, 0, 0); fill-opacity: 1; white-space: pre; opacity: 1;" transform="translate(0,579.12)">5.00</text></g><g class="ycbcoloraxistick"><text text-anchor="start" x="746.9" y="4.199999999999999" style="font-family: 'Open Sans', verdana, arial, sans-serif; font-size: 12px; fill: rgb(0, 0, 0); fill-opacity: 1; white-space: pre; opacity: 1;" transform="translate(0,448.25)">10.00</text></g><g class="ycbcoloraxistick"><text text-anchor="start" x="746.9" y="4.199999999999999" style="font-family: 'Open Sans', verdana, arial, sans-serif; font-size: 12px; fill: rgb(0, 0, 0); fill-opacity: 1; white-space: pre; opacity: 1;" transform="translate(0,317.37)">15.00</text></g><g class="ycbcoloraxistick"><text text-anchor="start" x="746.9" y="4.199999999999999" style="font-family: 'Open Sans', verdana, arial, sans-serif; font-size: 12px; fill: rgb(0, 0, 0); fill-opacity: 1; white-space: pre; opacity: 1;" transform="translate(0,186.48999999999998)">20.00</text></g></g><g class="cbtitleunshift" transform="translate(-80,-60)"><g class="cbtitle" transform=""><text class="ycbcoloraxistitle" x="793.8000000000001" y="83.5" text-anchor="start" style="font-family: 'Open Sans', verdana, arial, sans-serif; font-size: 14px; fill: rgb(42, 63, 95); opacity: 1; font-weight: normal; white-space: pre;">Average Soil Temperature</text></g></g><rect class="cboutline" x="714" y="32" width="30" height="618" style="stroke: rgb(68, 68, 68); stroke-opacity: 1; fill: none; stroke-width: 0;"/></g><g class="g-gtitle"><text class="gtitle" x="50" y="30" text-anchor="start" dy="0em" style="font-family: 'Open Sans', verdana, arial, sans-serif; font-size: 17px; fill: rgb(42, 63, 95); opacity: 1; font-weight: normal; white-space: pre;">Scatter Plot of PC1 and PC2 with Color-coded Average Soil Temperature</text></g><g class="g-xtitle"><text class="xtitle" x="425" y="760.8" text-anchor="middle" style="font-family: 'Open Sans', verdana, arial, sans-serif; font-size: 14px; fill: rgb(42, 63, 95); opacity: 1; font-weight: normal; white-space: pre;">PC1 (67.38%)</text></g><g class="g-ytitle"><text class="ytitle" transform="rotate(-90,36.746875,390)" x="36.746875" y="390" text-anchor="middle" style="font-family: 'Open Sans', verdana, arial, sans-serif; font-size: 14px; fill: rgb(42, 63, 95); opacity: 1; font-weight: normal; white-space: pre;">PC2 (32.62%)</text></g></g></svg>